<?xml version="1.0" standalone="no"?>
<!DOCTYPE svg PUBLIC "-//W3C//DTD SVG 20010904//EN"
 "http://www.w3.org/TR/2001/REC-SVG-20010904/DTD/svg10.dtd">
<svg version="1.0" xmlns="http://www.w3.org/2000/svg"
 width="49.000000pt" height="49.000000pt" viewBox="0 0 49.000000 49.000000"
 preserveAspectRatio="xMidYMid meet">

<g transform="translate(0.000000,49.000000) scale(0.100000,-0.100000)"
fill="#000000" stroke="none">
<path d="M86 419 c-32 -38 -33 -63 -1 -114 31 -51 31 -74 -2 -133 -38 -68 -20
-125 44 -138 25 -5 37 -1 57 19 39 39 43 71 12 115 -35 52 -35 104 0 137 34
32 62 31 108 0 60 -41 106 -30 126 30 14 42 -2 82 -42 104 -28 16 -37 14 -105
-30 -29 -18 -34 -19 -61 -5 -15 8 -34 22 -41 30 -22 27 -66 20 -95 -15z"/>
<path d="M317 180 c-34 -27 -41 -63 -22 -104 29 -60 102 -59 130 1 39 81 -40
156 -108 103z"/>
</g>
</svg>
